<?xml version="1.0" encoding="iso-8859-1"?>
<!-- Uploaded to: SVG Repo, www.svgrepo.com, Generator: SVG Repo Mixer Tools -->
<svg fill="#000000" height="800px" width="800px" version="1.1" id="Layer_1" xmlns="http://www.w3.org/2000/svg" xmlns:xlink="http://www.w3.org/1999/xlink" 
	 viewBox="0 0 512.001 512.001" xml:space="preserve">
<g>
	<g>
		<path d="M416.152,445.258h-82.848v-30.677h22.301c4.996,0,9.046-4.05,9.046-9.046v-18.907h30.971c4.996,0,9.046-4.05,9.046-9.046
			v-44.904c0-4.996-4.05-9.046-9.046-9.046l-130.228,0.002c-24.196,0-46.184-12.554-58.581-33.092
			c6.6-10.193,10.452-22.326,10.452-35.348s-3.85-25.154-10.45-35.347c12.397-20.536,34.385-33.09,58.581-33.09h47.114v54.029
			c0,4.996,4.05,9.046,9.046,9.046h9.873v23.387c0,4.996,4.05,9.046,9.046,9.046h48.649c4.996,0,9.046-4.05,9.046-9.046v-23.387
			h9.873c4.996,0,9.046-4.05,9.046-9.046V50.59c0-4.996-4.05-9.046-9.046-9.046h-20.27V18.093h1.259c4.996,0,9.046-4.05,9.046-9.046
			S394.028,0,389.032,0h-48.467c-4.996,0-9.046,4.05-9.046,9.046s4.05,9.046,9.046,9.046h1.259v23.451h-20.27
			c-4.996,0-9.046,4.05-9.046,9.046v45.221h-47.114c-42.581,0-82.604,16.581-112.696,46.685
			c-16.574,16.561-29.419,36.826-37.307,58.764c-17.242,11.751-28.588,31.542-28.588,53.935c0,22.406,11.359,42.207,28.617,53.956
			c21,58.442,73.77,98.938,134.924,104.697v31.411H129.659c-4.996,0-9.046,4.05-9.046,9.046v48.649c0,4.996,4.05,9.046,9.046,9.046
			h286.493c4.996,0,9.046-4.05,9.046-9.046v-48.649C425.198,449.309,421.148,445.258,416.152,445.258z M364.652,341.725h21.925
			v26.811h-21.925V341.725z M380.078,264.174h-30.556v-14.34h30.556V264.174z M359.918,18.093h9.762v23.451h-9.762V18.093z
			 M330.602,59.636h20.27h27.854h20.27v172.104h-9.873h-48.649h-9.873V59.636z M165.492,155.291
			c26.677-26.689,62.157-41.388,99.903-41.388h47.114v54.761h-47.114c-28.667,0-54.881,13.923-70.956,37.024
			c-11.413-9.789-26.224-15.724-42.403-15.724c-4.318,0-8.535,0.432-12.62,1.236C146.147,177.994,154.972,165.803,165.492,155.291z
			 M104.897,255.195c0-25.992,21.146-47.138,47.139-47.138c25.992,0,47.138,21.146,47.138,47.138s-21.146,47.139-47.138,47.139
			C126.043,302.334,104.897,281.188,104.897,255.195z M139.381,319.184c4.096,0.809,8.325,1.242,12.655,1.242
			c16.18,0,30.99-5.934,42.403-15.724c16.075,23.101,42.289,37.025,70.957,37.025h81.161l0.004,54.761h-81.164
			C211.569,396.489,163.175,366.13,139.381,319.184z M315.212,414.582v30.676h-46.773v-30.676H315.212z M407.105,493.907h-268.4
			v-30.556h268.4V493.907z"/>
	</g>
</g>
<g>
	<g>
		<path d="M152.036,221.344c-18.666,0-33.852,15.186-33.852,33.85c0,18.666,15.186,33.852,33.852,33.852
			s33.852-15.186,33.852-33.852S170.702,221.344,152.036,221.344z M152.036,270.954c-8.689,0-15.759-7.069-15.759-15.759
			c0-8.688,7.069-15.758,15.759-15.758s15.759,7.069,15.759,15.758C167.795,263.884,160.725,270.954,152.036,270.954z"/>
	</g>
</g>
<g>
	<g>
		<path d="M378.65,99.507c-4.996,0-9.046,4.05-9.046,9.046v104.932c0,4.996,4.05,9.046,9.046,9.046c4.996,0,9.046-4.05,9.046-9.046
			V108.553C387.697,103.556,383.646,99.507,378.65,99.507z"/>
	</g>
</g>
<g>
	<g>
		<circle cx="378.647" cy="85.036" r="9.046"/>
	</g>
</g>
</svg>